<svg xmlns="http://www.w3.org/2000/svg" width="500" height="500.00018" viewBox="0 0 500.00002 500.00018"><defs><clipPath id="a"><path d="M-14.173 807.874h623.622V-14.173H-14.173Z"/></clipPath></defs><path fill="#2b395f" d="M500 250c0 138.066-111.934 250-250 250C111.923 500 0 388.066 0 250S111.923 0 250 0c138.066 0 250 111.934 250 250" style="stroke-width:10.4699"/><path fill="#fff" d="M442.921 250c0 106.552-86.376 192.929-192.918 192.929-106.552 0-192.929-86.377-192.929-192.929s86.377-192.929 192.93-192.929c106.54 0 192.917 86.377 192.917 192.93" style="stroke-width:10.4699"/><path fill="#a8aaad" d="M249.997 60.677c-104.395 0-189.317 84.931-189.317 189.316 0 104.395 84.922 189.327 189.317 189.327s189.327-84.932 189.327-189.327c0-104.385-84.932-189.316-189.327-189.316" style="stroke-width:10.4699"/><path fill="#2256a3" d="M434.792 234.996a184.5 184.5 0 0 0-7.485-39.357c-16.763-44.497-59.72-76.168-110.081-76.168-64.966 0-117.63 60.914-117.63 113.63 0 .23.021.45.021.68.157 2.063.073 4.03.073 6.135 0 .189-.042.765-.042.943.23 29.609-32.215 85.989-81.864 77.383-14.207-2.471-34.508-7.057-46.915-21.359 1.466 3.675 4.544 15.056 6.7 20.584 27.002 68.902 94.072 117.702 172.555 117.702 102.322 0 185.265-82.953 185.265-185.275 0-5.015-.21-9.988-.597-14.898" style="stroke-width:10.4699"/><path fill="#e42f30" d="M176.78 295.266a81 81 0 0 0 4.765-5.674c8.177-10.753 13.558-23.495 16.144-36.729 2.754-14.071 1.32-28.645 5.015-42.58 6.994-26.322 24.113-49.848 45.597-66.338 19.715-15.14 43.91-24.478 68.923-24.478 50.36 0 93.318 31.67 110.08 76.168-23.19-75.844-93.736-131.01-177.181-131.01-72.672 0-135.565 41.848-165.906 102.752-13.391 30.614-13.967 38.508-17.935 59.395a187 187 0 0 0-1.435 23.128c0 20.427 1.403 29.211 6.02 46.979 7.842 11.83 37.085 22.05 56.318 22.039 18.793 0 36.917-9.915 49.596-23.652" style="stroke-width:10.4699"/><path fill="#fff" d="m331.029 218.392-13.035-21.746 24.174 8.46-10.375 2.743zM293.752 220.855l-13.035-21.746 24.174 8.46-10.375 2.743zM288.876 253.36l-13.035-21.746 24.175 8.46-10.376 2.743z" style="stroke-width:10.4699"/><path fill="#fff" d="M435.379 251.912c-15.496 12.218-39.524 20.605-65.814 20.605-32.54 0-60.767-11.946-74.891-29.442 10.972 24.877 49.627 43.252 95.61 43.252 15.245 0 29.673-2.021 42.55-5.623 1.236-4.575 1.393-6.659 2.01-15.17.619-8.523.535-13.622.535-13.622" style="stroke-width:10.4699"/><path fill="#f6e42b" d="m164.72 232.237-102.5 183.58 217.669-228.36h-84.744L292.808 4.853 97.514 232.237Z" style="stroke-width:10.4699"/><path fill="#fff" d="m319.825 23.64-7.497 29.472-3.81-.963 7.496-29.473zm-6.272-1.592-7.486 29.472-3.78-.963 4.021-15.81-3.884-.984.806-3.151 3.874.984 2.67-10.512zm-11.14 2.314c-.544 2.146-.973 4.125-1.277 5.925-.304 1.801-.44 3.497-.387 5.089.041 1.591.272 3.088.701 4.502.43 1.413 1.11 2.785 2.052 4.104l-3.235 2a25 25 0 0 1-.9-1.675 36 36 0 0 1-.922-2.063 27 27 0 0 1-.806-2.314 20 20 0 0 1-.555-2.377 15 15 0 0 1-1.309 2.063c-.492.68-1.026 1.32-1.57 1.916a25 25 0 0 1-1.675 1.654c-.566.503-1.079.932-1.55 1.288l-2.314-3.099a17 17 0 0 0 3.32-2.848c.962-1.078 1.842-2.345 2.617-3.79.785-1.445 1.486-3.11 2.125-4.963a83 83 0 0 0 1.874-6.376l-4.083-1.036.88-3.455 11.935 3.036-.869 3.455zM336.385 61.87l-4.01-1.77 8.522-19.243-6.198-2.733 1.09-2.481c.879.387 1.79.68 2.742.88a9.3 9.3 0 0 0 2.712.188c.869-.063 1.644-.273 2.314-.618.68-.346 1.172-.88 1.486-1.591l2.88 1.277zM372.036 51.698a47 47 0 0 0-6.052 2.817 43 43 0 0 0-5.632 3.79 44 44 0 0 0-5.12 4.837c-1.623 1.8-3.12 3.8-4.481 6.02l-3.508-2c2.356-3.727 5.34-7.014 8.973-9.873 3.623-2.858 7.758-5.287 12.417-7.287l-12.082-6.858 1.56-2.732 15.349 8.71-1.476 2.587zM410.359 75.902l-13.83 16.836-3.184-2.607 7.235-8.805-3.77-3.1 2.053-2.512 3.78 3.099 4.544-5.518zm-13.852-5.675c-.492.608-.932 1.372-1.34 2.314q-.597 1.398-.848 3.047a12 12 0 0 0 0 3.361 8.1 8.1 0 0 0 1.194 3.214l-3.361 1.403c-.733-1.487-1.204-3.088-1.435-4.806-.22-1.727-.209-3.36.042-4.93-1.424.69-2.994 1.172-4.732 1.423a14.4 14.4 0 0 1-5.225-.178l.46-3.696a8.5 8.5 0 0 0 3.582.472 11.5 11.5 0 0 0 3.36-.828c1.037-.45 1.99-.984 2.838-1.633.848-.639 1.55-1.288 2.083-1.937l-4.282-3.518 2.22-2.69 11.946 9.81-2.22 2.701zm-2.607 26.51-2.24 2.722-16.354-13.443 6.816-8.302 3.14 2.586-4.575 5.58zM434.925 124.278l-2.408 1.811-13.663-18.144 12.051-9.077 13.538 17.976-2.377 1.79-11.13-14.783-2.46 1.854 10.46 13.883-2.388 1.79-10.449-13.873-2.44 1.822zm-3.465 5.015-2.817 2.115-6.836-9.077-6.523 4.92-2.43-3.224 6.524-4.921-6.785-9.014 2.806-2.116zM440.914 155.848l2.67 6.03 7.978-3.517-2.67-6.041zM470 163.805l-27.809 12.323-1.664-3.758 27.808-12.313zm-4.24-7.287-23.746 10.512-5.968-13.475 23.735-10.512 1.654 3.717-9.287 4.115 2.67 6.041 9.287-4.115zM467.31 199.904c.063.335.189.66.356.953.178.303.419.555.733.732.314.189.712.304 1.204.357.492.062 1.079.02 1.77-.105 1.35-.262 2.23-.702 2.648-1.33q.645-.942.44-1.979a2.7 2.7 0 0 0-.366-.942 2.4 2.4 0 0 0-.775-.743c-.325-.2-.743-.335-1.236-.388-.502-.052-1.088-.02-1.759.116-.67.125-1.224.303-1.654.544-.429.23-.754.502-.973.806q-.33.471-.409.974c-.052.335-.042.67.02 1.005m16.26 16.448-18.008 3.466-.733-3.8 7.863-1.509-.503-2.617-5.978 1.141-.722-3.759 16.123-3.099.723 3.759-6.68 1.288.502 2.617 6.68-1.277zm-4.209-11.936-3.088.597-.314-1.58c-.44.429-.985.805-1.623 1.13-.639.314-1.403.565-2.293.733-1.194.23-2.23.251-3.11.073s-1.633-.502-2.25-.953a5.14 5.14 0 0 1-1.508-1.738 8.1 8.1 0 0 1-.796-2.25 7.2 7.2 0 0 1-.084-2.367 5 5 0 0 1 .754-2.125c.408-.65.995-1.225 1.738-1.717.754-.492 1.728-.859 2.91-1.079.9-.177 1.707-.23 2.409-.167.712.063 1.35.21 1.937.45l-.314-1.623 3.099-.586.92 4.837 2.66-.513.67 3.528-2.649.513zm-24.29 7.036c.44 2.262.963 3.843 1.592 4.764.628.91 1.507 1.256 2.627 1.047 1.006-.199 1.655-.838 1.948-1.927.283-1.088.22-2.763-.22-5.025-.848-4.44-2.261-6.46-4.23-6.083-1.12.21-1.79.91-2.02 2.094-.23 1.173-.126 2.89.303 5.13m9.172-1.759c.701 3.623.701 6.334.02 8.146-.69 1.8-2.104 2.91-4.23 3.319-2.146.408-3.874-.094-5.182-1.518-1.299-1.414-2.304-3.937-3.005-7.57-.702-3.654-.712-6.418-.042-8.303.67-1.884 2.083-3.025 4.23-3.444 2.136-.409 3.853.146 5.172 1.644s2.335 4.072 3.036 7.726M479.535 271.19l-3.518.148-.178-4.031-11.444.492-.167-4 6.01-.262a27 27 0 0 1-.67-2.753 24 24 0 0 1-.293-2.785l-.608-14.25 15.182-.649.68 15.925-3.486.147-.513-11.989-8.167.346.576 13.569c.031.712.24 1.256.639 1.665.387.408.88.596 1.476.575l10.564-.45.167 4-6.428.272zm-20.228-2.219-3.518.147-.932-21.694 11.549-.492.177 3.99-8.03.345zM14.789 242.922l28.97 1.947-.251 3.717-14.009-.942-.199 2.942 14.009.942-.241 3.717-4.303-.293c.094.523.167.984.209 1.382.052.387.094.764.126 1.12.03.367.041.702.041 1.026 0 .335.012.68.032 1.079l-.566 8.376-23.976-1.613.67-9.988 3.35.22-.408 6.156 17.234 1.141.45-6.68c.052-.701-.073-1.277-.377-1.748-.282-.482-.754-.733-1.382-.775l-20.07-1.35.24-3.717 11.57.775.198-2.943-11.569-.774zM49.36 182.8l3.245.88-5.34 19.673-10.24-2.785.995-3.686 7.005 1.895zm-15.852 11.883c.167-.586.188-1.11.105-1.57a2.95 2.95 0 0 0-.513-1.214 3.3 3.3 0 0 0-.964-.87 5 5 0 0 0-1.214-.513 5.3 5.3 0 0 0-1.33-.177c-.44.011-.858.094-1.267.261a2.84 2.84 0 0 0-1.078.796c-.314.366-.555.838-.712 1.424s-.189 1.11-.105 1.56c.094.471.272.869.534 1.225s.587.638.963.869c.377.22.786.398 1.236.513.419.115.858.167 1.298.167.46 0 .88-.083 1.277-.25.398-.179.754-.44 1.058-.807.324-.367.555-.838.712-1.414m-.796-19.254 3.214.87-.91 3.381 9.422 2.555-.994 3.654-19.705-5.34.995-3.664 7.057 1.916zm-7.779 8.46 3.057.827-.649 2.419c1.372-.597 2.89-.66 4.554-.21.985.262 1.843.68 2.555 1.225a6.5 6.5 0 0 1 1.717 1.958c.43.754.691 1.602.785 2.534.105.932.012 1.916-.272 2.932-.272 1.025-.69 1.905-1.235 2.648a6.8 6.8 0 0 1-1.937 1.78c-.744.44-1.57.702-2.471.806-.911.095-1.853.012-2.848-.25q-2.481-.673-3.832-2.461l-.607 2.261-3.057-.837 1.612-5.937-2.775-.754.995-3.685 2.775.743zM77.475 126.916l2.848 1.79-11.046 17.548-8.952-5.633 2.032-3.235 6.104 3.843zm-21.83-12.899 17.307 10.889-2.042 3.235-17.306-10.889zm.063 23.086 3.686-5.873-6.88-4.335-3.695 5.874zm-4.01-15.233 12.554 7.904-7.77 12.334-12.542-7.894ZM112.421 70.867l2.189 2.554-8.146 6.984 2.366 2.743 6.617-5.675 6.869 8.01-2.922 2.512-4.68-5.454-13.254 11.37-2.189-2.555 6.66-5.716-2.357-2.754-8.145 6.984-2.188-2.555 14.165-12.145a7 7 0 0 0-.586-1.35c-.23-.43-.513-.87-.848-1.34-.325-.462-.712-.954-1.152-1.467s-.932-1.078-1.465-1.706L90.35 80.467l-2.22-2.575 15.935-13.674 2.094 2.43c.45.523 1.058 1.266 1.843 2.219.775.963 1.56 2.21 2.356 3.77zM164.629 57.115c1.35-.586 2.418-1.14 3.225-1.643.806-.513 1.392-.985 1.78-1.424.387-.44.607-.848.67-1.225.062-.367.02-.723-.136-1.068q-.204-.47-.692-.817c-.324-.22-.774-.335-1.36-.345-.576-.012-1.33.104-2.252.345s-2.052.65-3.402 1.246c-1.32.576-2.387 1.13-3.183 1.644-.796.513-1.403 1.005-1.801 1.455-.408.45-.65.87-.712 1.257-.063.387-.02.743.126 1.078.136.324.376.586.701.785s.785.304 1.393.314c.607.012 1.36-.104 2.282-.356.91-.25 2.031-.66 3.36-1.246m-3.423-7.8a31 31 0 0 1 3.958-1.455c1.277-.377 2.47-.555 3.55-.544q1.632.016 2.889.69c.837.461 1.486 1.215 1.947 2.273.471 1.057.587 2.041.356 2.963-.24.931-.722 1.78-1.455 2.586-.733.795-1.675 1.539-2.806 2.23a31.5 31.5 0 0 1-3.759 1.926 33 33 0 0 1-3.989 1.466c-1.298.387-2.481.565-3.57.565s-2.042-.22-2.88-.67c-.837-.46-1.486-1.214-1.947-2.272-.46-1.057-.586-2.041-.345-2.963.23-.931.712-1.79 1.445-2.596q1.083-1.209 2.826-2.262c1.152-.701 2.419-1.34 3.78-1.937m9.381-10.082 1.288 2.931-23.149 10.156-1.309-2.994 8.397-3.675-1.55-3.539 3.592-1.57 1.602 3.643 5.193-2.272q.046-.456-.126-1.225c-.125-.513-.314-1.1-.555-1.738a77 77 0 0 0-.827-2.041c-.304-.723-.618-1.445-.932-2.168l-15.694 6.89-1.361-3.11 19.222-8.439 1.1 2.523a52 52 0 0 1 1.55 3.916c.45 1.298.774 2.586.973 3.843zM235.534 38.94l.398 3.34-21.799 2.618-1.246-10.27 3.77-.451.827 6.931zm-.21-13.16.409 3.371-10.648 1.278.785 6.585-3.79.45-.796-6.575-10.648 1.278-.397-3.372 18.52-2.23a8 8 0 0 0 .283-1.727c.042-.587.042-1.204.012-1.843a30 30 0 0 0-.188-2.02 63 63 0 0 1-.293-2.283l-17.014 2.042-.408-3.372 20.845-2.502.325 2.722c.188 1.56.314 3.026.398 4.408.073 1.393.02 2.764-.189 4.125zM400.833 357.58c-3.769-10.888-14.103-18.751-26.258-18.751-15.328 0-27.808 12.48-27.808 27.808 0 4.271.974 8.407 2.89 12.291l.324.64-4.858 2.847-.356-.157a23.747 23.747 0 0 0-31.022 12.543l-.482 1.13-.806-.942a19.95 19.95 0 0 0-15.202-7.036c-3.77 0-7.455 1.068-10.67 3.11l-.973.607-.199-1.13a8.056 8.056 0 0 0-7.946-6.649c-.45 0-.89.052-1.33.115l-2.157.367 1.455-1.634a43.87 43.87 0 0 0 11.15-29.242c0-24.217-19.703-43.921-43.92-43.921s-43.921 19.704-43.921 43.921c0 3.748.47 7.476 1.413 11.077l.408 1.57-1.476-.68c-2.083-.953-4.272-1.445-6.533-1.445-8.606 0-15.621 7.005-15.621 15.621 0 1.09.125 2.21.366 3.33l.21.973-1.34-.052a8 8 0 0 0-4.21 1.194l-.565.345-.43-.513a17.23 17.23 0 0 0-13.317-6.271c-9.527 0-17.275 7.747-17.275 17.275 0 1.047.125 2.073.314 3.1 30.73 22.625 68.672 36.047 109.756 36.13 62.013-.104 116.833-30.697 150.39-77.57" style="stroke-width:10.4699"/><path fill="#a8aaad" d="M374.576 337.29c-16.187 0-29.347 13.17-29.347 29.347 0 4.272.921 8.418 2.732 12.323l-2.952 1.728a25.3 25.3 0 0 0-9.433-1.822 25.28 25.28 0 0 0-22.751 14.239 21.43 21.43 0 0 0-26.144-3.895 9.6 9.6 0 0 0-8.889-6.858 45.37 45.37 0 0 0 10.334-28.855c0-25.065-20.395-45.46-45.46-45.46s-45.46 20.395-45.46 45.46c0 3.371.366 6.722 1.099 9.988a16.8 16.8 0 0 0-5.748-1.005c-9.465 0-17.16 7.696-17.16 17.16 0 .9.073 1.812.22 2.723-1.35.083-2.68.45-3.884 1.078a18.8 18.8 0 0 0-14.082-6.334c-10.376 0-18.815 8.438-18.815 18.814 0 .608.042 1.204.094 1.801.283.21.566.44.848.65.293.219.608.428.911.648-.188-1.026-.314-2.052-.314-3.099 0-9.527 7.748-17.275 17.275-17.275a17.23 17.23 0 0 1 13.318 6.271l.419.513.576-.345a8 8 0 0 1 4.209-1.194l1.34.053-.21-.974c-.24-1.11-.366-2.24-.366-3.33 0-8.606 7.004-15.62 15.62-15.62 2.262 0 4.45.492 6.534 1.444l1.476.691-.408-1.58a44.3 44.3 0 0 1-1.413-11.078c0-24.217 19.704-43.92 43.92-43.92 24.218 0 43.922 19.703 43.922 43.92a43.85 43.85 0 0 1-11.15 29.243l-1.456 1.623 2.157-.356c.43-.074.88-.116 1.33-.116a8.056 8.056 0 0 1 7.946 6.649l.2 1.13.973-.607a19.9 19.9 0 0 1 10.669-3.11 19.95 19.95 0 0 1 15.202 7.036l.796.953.492-1.141a23.74 23.74 0 0 1 21.83-14.386c3.182 0 6.281.618 9.192 1.843l.356.157 4.848-2.848-.315-.638c-1.916-3.885-2.89-8.02-2.89-12.292 0-15.328 12.48-27.808 27.809-27.808 12.155 0 22.49 7.863 26.258 18.752.356-.503.712-.995 1.068-1.508-4.25-10.962-14.878-18.783-27.326-18.783" style="stroke-width:10.4699"/><path fill="#fff" d="M180.975 463.519c-.628 1.706-1.78 2.827-3.444 3.382-1.665.555-3.738.366-6.22-.545a12.3 12.3 0 0 1-2.879-1.507c-.858-.618-1.55-1.34-2.062-2.168-.513-.837-.817-1.769-.911-2.816-.084-1.047.104-2.21.576-3.487l3.381 1.246c-.282.765-.408 1.456-.366 2.073.052.608.23 1.163.544 1.644.325.492.744.911 1.288 1.267.545.356 1.173.67 1.895.942 1.141.42 2.147.555 3.005.388s1.455-.691 1.79-1.581a2.84 2.84 0 0 0-.031-2.115q-.424-1.053-2.073-2.293l-3.015-2.293c-.461-.356-.922-.764-1.393-1.225a6 6 0 0 1-1.173-1.57 5.6 5.6 0 0 1-.586-1.969q-.11-1.083.377-2.418a5.8 5.8 0 0 1 1.277-2.052 5.4 5.4 0 0 1 2-1.278c.785-.282 1.644-.408 2.597-.366.952.031 1.958.251 3.025.649 1.048.377 1.969.88 2.765 1.487.785.617 1.413 1.308 1.874 2.094.46.774.733 1.622.816 2.533.084.922-.062 1.875-.429 2.88l-3.382-1.246c.44-1.194.398-2.178-.125-2.974-.534-.806-1.393-1.413-2.565-1.853-1.11-.408-2.053-.492-2.838-.251q-1.163.345-1.633 1.602c-.262.701-.272 1.287-.032 1.77.23.47.68.973 1.33 1.486l3.382 2.607c.827.649 1.518 1.267 2.083 1.864.555.596.974 1.214 1.246 1.853.273.638.398 1.298.388 1.989-.02.69-.178 1.434-.482 2.251M193.54 455.006l-3.34-.953 1.12-3.905 3.34.964zm-4.774 16.532-3.288-.942 4.24-14.742 3.278.932zM208.068 476.082l-3.34-.712 1.916-8.952c.23-1.1.21-2.01-.073-2.722-.283-.723-.838-1.162-1.675-1.35-1.058-.22-1.906-.043-2.545.554-.649.586-1.11 1.518-1.381 2.785l-1.812 8.491-3.34-.712 3.225-15.056 3.34.712-.24 1.1c.345-.377.847-.639 1.507-.817.67-.167 1.392-.167 2.188 0 1.99.43 3.298 1.256 3.916 2.502.628 1.246.722 2.932.262 5.047zM229.049 473.638q-.362 1.476-1.068 2.481a6 6 0 0 1-1.654 1.592 5.5 5.5 0 0 1-2.126.795 9.2 9.2 0 0 1-2.47.02c-1.016-.125-1.927-.408-2.744-.858a6.2 6.2 0 0 1-2.031-1.811c-.544-.764-.932-1.665-1.173-2.712-.24-1.047-.282-2.23-.115-3.57.157-1.246.46-2.356.911-3.309.45-.963 1.026-1.758 1.717-2.376a6.1 6.1 0 0 1 2.408-1.33c.911-.272 1.906-.335 2.974-.199a8.2 8.2 0 0 1 2.303.607c.712.304 1.32.712 1.843 1.236a5.6 5.6 0 0 1 1.214 1.874c.293.733.44 1.58.44 2.513l-3.319-.409c-.012-.816-.24-1.465-.702-1.957-.46-.482-1.172-.786-2.146-.901-1.193-.146-2.146.22-2.879 1.1-.733.868-1.194 2.062-1.382 3.57q-.299 2.496.502 3.926c.545.953 1.383 1.497 2.534 1.633.974.126 1.749.012 2.335-.335.586-.345.995-1.015 1.235-2zM244.718 470.117c-.084-.952-.377-1.748-.88-2.366-.492-.638-1.298-.973-2.418-1.015-1.058-.032-1.853.25-2.387.837-.545.597-.911 1.361-1.11 2.304zm3.34 2.01c0 .179-.012.357-.02.535 0 .177-.02.356-.042.534l-10.271-.356c0 1.256.282 2.261.858 3.015s1.414 1.141 2.503 1.183c1.162.042 2.01-.136 2.554-.544.545-.398.911-1.037 1.1-1.906l3.203.115c-.408 1.801-1.183 3.162-2.313 4.073q-1.696 1.35-4.65 1.257a7.1 7.1 0 0 1-2.669-.608 5.7 5.7 0 0 1-2.146-1.591c-.597-.702-1.047-1.57-1.372-2.597-.324-1.026-.45-2.23-.408-3.59.042-1.3.261-2.45.628-3.435.366-1.005.87-1.832 1.508-2.502a6 6 0 0 1 2.23-1.508c.858-.335 1.78-.482 2.774-.45 1.12.042 2.094.272 2.932.701a5.8 5.8 0 0 1 2.073 1.738c.544.744.942 1.613 1.204 2.628.262 1.005.366 2.105.324 3.309M275.66 478.184l-3.518.377-1.508-14.134-3.968.418-.293-2.732c.827-.126 1.487-.304 2-.513.513-.22.91-.503 1.214-.859.293-.356.503-.795.608-1.298.115-.513.177-1.12.209-1.843l3.026-.324zM294.029 460.721c-.24-1.214-.743-2.115-1.497-2.67-.754-.565-1.623-.753-2.597-.554-1.13.22-1.905.743-2.293 1.57-.397.827-.47 1.843-.23 3.036.22 1.141.701 2.042 1.413 2.68.723.65 1.623.86 2.691.64a3.4 3.4 0 0 0 1.382-.587c.377-.293.67-.65.87-1.068q.313-.647.376-1.403a6 6 0 0 0-.115-1.644m4.596 2.796c.723 3.56.607 6.365-.335 8.407-.942 2.031-2.523 3.277-4.753 3.727-.963.189-1.832.23-2.639.115a5.5 5.5 0 0 1-2.115-.711 5.5 5.5 0 0 1-1.59-1.414 7 7 0 0 1-1.048-2.01l3.371-.67c.325.775.754 1.298 1.299 1.56.534.272 1.214.314 2.03.157.681-.136 1.215-.419 1.624-.838.398-.429.69-.931.89-1.539a6.6 6.6 0 0 0 .282-2 13 13 0 0 0-.23-2.24c-.22.45-.607.91-1.173 1.393-.555.492-1.277.827-2.178 1.005-2.03.397-3.769.125-5.224-.828q-2.183-1.445-2.858-4.805c-.22-1.068-.241-2.063-.084-2.995.157-.921.46-1.748.932-2.47a6.2 6.2 0 0 1 1.832-1.854c.764-.502 1.654-.858 2.66-1.057 1.025-.21 2-.251 2.931-.136.932.115 1.811.492 2.607 1.152q1.21.99 2.167 2.92c.65 1.288 1.183 3.005 1.602 5.13M315.11 450.981a12.2 12.2 0 0 0-1.99 3.874q-.69 2.182-.817 4.68a31 31 0 0 0 .199 5.256c.22 1.843.565 3.706 1.026 5.612l-3.539 1.057c-.523-2.115-.837-4.083-.963-5.926-.126-1.832-.115-3.539.042-5.11.157-1.57.44-3.025.838-4.344.397-1.33.858-2.523 1.392-3.591l-8.91 2.66-.921-3.09 12.825-3.831zM334.462 456.228c-.387-.964-1.037-1.634-1.947-1.98-.9-.345-1.864-.313-2.859.085-.994.397-1.706 1.047-2.115 1.926-.419.88-.419 1.8-.031 2.775.387.973 1.036 1.622 1.947 1.978.911.346 1.864.314 2.859-.083.994-.409 1.706-1.047 2.114-1.927.42-.88.42-1.8.032-2.774m-4.272-8.303c-.303-.775-.785-1.288-1.434-1.55-.66-.25-1.403-.209-2.251.126-.848.346-1.424.838-1.707 1.476-.293.639-.283 1.34.032 2.115.303.765.785 1.278 1.434 1.54.65.25 1.403.209 2.251-.126.848-.346 1.424-.838 1.707-1.476.293-.629.282-1.34-.032-2.105m7.59 7.256q.566 1.398.503 2.701a5.6 5.6 0 0 1-.67 2.408 7.1 7.1 0 0 1-1.664 2 9.2 9.2 0 0 1-2.492 1.465 9.3 9.3 0 0 1-2.817.67 7 7 0 0 1-2.586-.282 5.7 5.7 0 0 1-2.156-1.267c-.629-.607-1.131-1.371-1.508-2.303-.45-1.11-.639-2.21-.555-3.277a5.1 5.1 0 0 1 1.173-2.848 4.56 4.56 0 0 1-2.094-1.162c-.597-.576-1.068-1.299-1.424-2.178a5.3 5.3 0 0 1-.398-2.084 4.9 4.9 0 0 1 .481-2.062c.315-.66.786-1.277 1.414-1.832.628-.566 1.424-1.037 2.387-1.424q1.445-.582 2.701-.628c.848-.032 1.613.083 2.293.335.68.261 1.278.638 1.77 1.151.513.513.9 1.11 1.172 1.78.723 1.822.628 3.434-.293 4.848 1.162.083 2.125.492 2.91 1.204.776.722 1.404 1.644 1.854 2.785M345.997 111.756c-27.159-17.84-61.123-31.671-94.574-29.535l-16.605 31.064c19.19-2.272 62.201-4.22 95.265 17.37 0 0 51.334 27.828 54.988 68.452 3.664 40.633-35.954 30.875-35.954 30.875s-23.295-4.544-43.272-13.401c0 0 48.842 39.733 81.665 16.448 32.51-23.044 10.941-86.806-41.513-121.273" style="stroke-width:10.4699"/><path fill="#fff" d="M287.258 344.71c35.577-9.56 61.992-44.979 61.992-87.235 0-13.067-2.544-25.474-7.088-36.677.377 3.508.587 7.057.587 10.68 0 45.041-30.018 82.335-69.165 88.795 6.88 6.397 11.79 14.867 13.674 24.437" style="stroke-width:10.4699"/></svg>