<?xml version="1.0" standalone="no"?>
<!DOCTYPE svg PUBLIC "-//W3C//DTD SVG 20010904//EN"
 "http://www.w3.org/TR/2001/REC-SVG-20010904/DTD/svg10.dtd">
<svg version="1.0" xmlns="http://www.w3.org/2000/svg"
 width="1000.000000pt" height="1000.000000pt" viewBox="0 0 1000.000000 1000.000000"
 preserveAspectRatio="xMidYMid meet">
<metadata>
Created by potrace 1.14, written by Peter Selinger 2001-2017
</metadata>
<g transform="translate(0.000000,1000.000000) scale(0.100000,-0.100000)"
fill="#000000" stroke="none">
<path d="M6145 8014 c-74 -21 -223 -44 -281 -44 -35 0 -66 8 -98 25 -45 24
-51 24 -214 21 -215 -5 -291 -20 -377 -73 -63 -39 -80 -68 -80 -138 0 -51 7
-73 44 -149 81 -163 177 -258 274 -272 41 -5 53 -3 89 21 53 35 101 35 181 -3
65 -30 99 -57 262 -207 55 -51 117 -107 138 -125 20 -17 37 -39 37 -49 1 -34
39 -100 67 -115 50 -25 97 -9 173 59 19 18 55 39 81 48 53 20 116 80 128 124
9 32 7 210 -4 285 -23 163 -34 186 -122 271 -41 39 -93 97 -116 127 -23 30
-44 57 -48 60 -13 12 -49 102 -49 125 0 29 -9 30 -85 9z"/>
<path d="M2948 7855 c-2 -2 -30 -5 -63 -8 -60 -5 -192 -35 -272 -62 -23 -8
-52 -16 -65 -19 -13 -3 -77 -19 -143 -36 -66 -18 -131 -34 -143 -36 -13 -3
-49 -11 -80 -19 -31 -8 -65 -15 -77 -15 -16 -1 -8 -12 38 -55 32 -30 95 -84
140 -120 45 -37 89 -72 98 -80 9 -7 72 -49 138 -93 410 -272 727 -311 927
-116 l55 54 62 -29 c34 -15 83 -36 108 -45 l46 -18 -5 -73 c-4 -67 -2 -80 26
-137 52 -108 143 -189 312 -277 105 -54 116 -57 123 -29 8 29 15 109 22 223 9
149 22 265 41 367 11 61 35 86 132 135 123 63 253 109 362 127 226 39 280 112
146 199 -189 125 -354 166 -477 117 -143 -58 -233 -70 -288 -39 -18 11 -35 19
-36 17 -1 -2 -46 -91 -101 -198 -54 -107 -106 -206 -114 -220 -106 -163 -112
-172 -139 -165 -32 8 -181 92 -201 115 -44 48 -161 109 -264 137 -130 35 -243
57 -346 68 -25 3 -55 7 -66 9 -25 5 -161 16 -257 21 -38 1 -70 5 -73 7 -2 3
38 10 89 17 270 36 470 28 642 -26 100 -32 157 -60 222 -112 46 -36 51 -38 47
-18 -2 12 -6 34 -9 50 -17 93 -96 225 -166 278 -83 63 -184 97 -306 103 -45 2
-83 2 -85 1z"/>
<path d="M4716 7366 c-126 -46 -197 -88 -272 -161 -102 -101 -107 -119 -108
-405 0 -361 16 -567 51 -634 l16 -31 48 98 c58 117 111 207 137 231 12 10 18
25 15 36 -8 30 15 86 50 120 58 57 332 231 447 282 135 61 146 57 244 -95 108
-165 180 -317 177 -371 -6 -107 -5 -357 2 -410 9 -67 41 -159 61 -176 12 -9
18 6 36 82 12 51 24 104 26 118 10 53 85 312 114 391 17 46 47 113 66 148 31
55 34 70 29 109 -22 165 -86 341 -154 423 -17 20 -56 49 -88 64 -73 35 -263
115 -283 120 -8 2 -42 13 -75 25 -41 15 -90 23 -155 25 -52 2 -126 9 -165 15
-138 22 -147 22 -219 -4z"/>
<path d="M5740 7166 c141 -147 230 -324 231 -458 1 -83 -109 -388 -140 -388
-14 0 -58 -94 -75 -162 -54 -215 4 -368 179 -468 70 -40 195 -83 195 -67 0 14
18 175 26 232 16 118 49 247 79 310 44 94 58 146 57 231 0 88 -14 122 -121
289 -148 232 -320 436 -421 500 -56 35 -58 31 -10 -19z"/>
<path d="M6655 6840 c-105 -22 -272 -109 -242 -126 8 -5 24 -27 35 -50 36 -71
50 -155 46 -283 -2 -100 -7 -127 -28 -175 -45 -100 -56 -190 -51 -396 2 -102
7 -201 10 -220 5 -32 1 -40 -49 -92 -62 -64 -98 -116 -163 -238 -12 -24 -12
-25 29 -33 31 -7 55 -23 98 -65 81 -82 187 -256 177 -292 -8 -29 11 -112 31
-133 31 -35 54 -37 80 -5 28 33 92 72 163 99 42 16 56 18 89 8 33 -10 39 -17
45 -48 13 -70 7 -164 -19 -287 -10 -46 -69 -182 -106 -244 -62 -103 -90 -200
-117 -400 -15 -116 -8 -568 12 -755 4 -39 4 -38 -16 15 -11 30 -31 98 -44 151
-51 197 -60 275 -59 479 1 195 18 274 88 413 24 48 39 87 32 87 -6 0 -41 -13
-77 -29 -163 -69 -272 -183 -325 -341 -15 -43 -19 -84 -19 -185 0 -203 13
-243 285 -870 10 -22 35 -86 56 -142 22 -57 42 -103 46 -103 6 0 158 225 158
234 0 2 19 35 42 72 55 92 168 328 206 434 26 70 68 211 70 230 0 5 6 39 17
105 9 50 6 187 -4 240 -29 151 -121 282 -249 355 -11 6 -9 22 11 86 52 164 65
313 40 433 -7 35 -12 65 -11 66 2 1 21 12 43 26 22 13 59 41 81 61 l41 38 35
-39 c46 -49 111 -161 138 -232 11 -31 35 -77 54 -103 89 -126 291 -302 510
-445 43 -28 74 -51 69 -51 -15 0 -131 49 -208 87 -229 116 -407 286 -455 438
-13 38 -13 39 -23 15 -55 -139 -42 -294 35 -407 76 -112 274 -224 457 -258 14
-3 51 -12 81 -20 30 -9 62 -18 71 -20 52 -12 306 -88 321 -96 20 -11 23 -2 9
33 -5 13 -16 46 -24 73 -56 186 -184 447 -289 590 -161 216 -357 306 -532 243
l-40 -15 -38 58 c-21 31 -64 84 -94 116 -49 50 -54 60 -44 77 41 66 157 477
143 511 -11 30 109 160 232 253 l30 22 -22 18 c-50 43 -140 212 -188 355 -31
92 -98 180 -192 255 -49 38 -98 109 -154 223 -22 46 -48 100 -58 119 -32 67
-163 105 -276 80z"/>
<path d="M5056 6783 c-60 -16 -136 -85 -194 -173 -19 -30 -53 -75 -74 -99 -69
-80 -152 -240 -269 -519 -38 -91 -69 -174 -69 -184 0 -32 41 -107 84 -152 l41
-44 65 10 c36 6 108 26 160 45 127 48 379 169 396 190 20 26 17 111 -6 179
-11 33 -45 100 -74 149 -61 102 -74 109 -142 69 -65 -37 -87 -84 -100 -212
l-6 -63 51 51 c27 27 59 50 70 50 18 0 69 -44 72 -62 5 -28 4 -35 -8 -54 -18
-28 -102 -68 -196 -92 l-78 -20 -17 26 c-29 44 -21 127 20 213 39 83 131 210
204 282 42 41 54 47 91 47 33 0 50 -7 77 -30 46 -40 63 -91 70 -205 6 -98 51
-190 139 -290 l36 -40 -24 50 c-27 59 -36 120 -37 241 0 104 9 195 24 242 12
41 6 112 -16 172 -21 57 -103 178 -138 204 -27 19 -113 30 -152 19z"/>
<path d="M3703 6529 c-51 -10 -53 -12 -77 -65 -45 -99 -193 -223 -375 -315
l-78 -39 24 -49 c31 -63 41 -155 20 -194 -29 -56 11 -133 129 -249 84 -82 221
-191 360 -287 l103 -71 -15 42 c-14 41 -20 203 -9 289 6 55 13 118 21 178 5
45 13 61 40 87 56 52 48 154 -22 310 -15 32 -28 68 -29 78 -3 29 48 124 105
195 48 59 51 65 36 80 -20 19 -152 25 -233 10z"/>
<path d="M4068 6343 c-20 -50 -13 -305 12 -443 5 -25 6 -126 4 -225 -8 -270
-8 -279 15 -327 33 -72 79 -112 169 -147 108 -43 315 -57 384 -27 56 24 125
20 185 -9 46 -23 124 -95 149 -136 17 -29 97 -79 150 -95 71 -20 186 -20 270
0 60 15 73 22 88 49 55 102 278 275 603 470 l93 55 -40 16 c-22 9 -149 56
-282 106 -134 50 -262 100 -284 110 -98 47 -215 45 -358 -7 -39 -15 -78 -31
-86 -38 -8 -6 -27 -16 -41 -22 -65 -28 -189 -117 -351 -253 l-36 -31 -40 28
c-146 102 -245 179 -261 202 -40 56 -56 195 -40 355 9 91 13 83 -86 188 -39
41 -97 104 -130 141 -32 37 -63 67 -67 67 -5 0 -14 -12 -20 -27z"/>
<path d="M3923 5129 c-81 -23 -135 -125 -137 -254 -1 -70 11 -191 19 -205 3
-4 7 -29 10 -55 l6 -47 -73 5 c-85 7 -161 21 -203 37 -16 7 -43 15 -60 18 -42
9 -256 8 -340 -2 -152 -17 -435 -91 -690 -180 -71 -25 -131 -44 -133 -42 -13
13 284 174 426 231 295 117 521 138 745 69 28 -9 20 10 -38 85 -124 158 -280
235 -472 233 -176 -2 -406 -108 -623 -289 -36 -30 -73 -61 -82 -68 -42 -35
-379 -286 -432 -323 -68 -48 -82 -36 115 -102 122 -40 406 -113 484 -124 22
-4 51 -8 65 -11 14 -3 41 -7 60 -9 325 -39 528 -20 705 64 135 65 232 172 275
303 l17 52 140 0 140 0 43 -64 c24 -35 97 -118 162 -185 l118 -121 -58 -54
c-83 -80 -205 -167 -294 -212 -64 -32 -175 -114 -223 -164 -204 -212 -386
-488 -603 -915 -68 -135 -128 -246 -132 -248 -9 -3 31 160 72 293 160 528 413
899 717 1055 86 45 69 52 -174 74 -16 2 -66 -1 -110 -6 -438 -46 -709 -422
-770 -1068 -8 -80 -14 -134 -19 -169 -3 -14 -8 -51 -11 -81 -4 -30 -9 -62 -10
-70 -2 -8 -6 -37 -9 -65 -7 -53 -20 -143 -31 -210 -4 -22 -8 -53 -10 -70 -2
-16 -13 -81 -25 -144 -11 -62 -18 -116 -16 -119 6 -5 28 4 216 98 545 269 978
600 1184 904 65 96 126 218 141 286 2 8 8 35 14 60 6 25 9 95 7 155 -3 116
-20 183 -74 293 l-26 53 40 31 c21 17 87 80 146 140 106 108 107 109 113 81 4
-15 8 -32 10 -38 1 -5 -2 -18 -7 -27 -7 -14 1 -13 39 8 42 23 56 25 118 21 73
-6 165 -32 165 -48 0 -5 -13 -21 -28 -36 -115 -114 -175 -258 -171 -411 2
-106 19 -173 69 -277 58 -121 130 -215 285 -375 208 -213 333 -345 415 -437
40 -45 77 -80 81 -78 9 6 45 163 74 330 2 17 7 50 11 75 3 25 7 52 9 60 19 72
27 492 13 620 -19 158 -70 311 -139 412 -21 32 -39 60 -39 63 0 3 9 5 20 5 12
0 42 20 69 45 60 56 134 90 236 109 49 8 102 26 136 45 30 17 83 38 117 46 67
17 74 19 142 30 25 4 53 9 63 11 9 1 54 6 99 9 74 6 88 10 142 46 93 61 146
144 146 225 0 41 -26 120 -51 156 -11 14 -19 33 -19 42 0 40 -109 208 -207
316 -17 19 -41 47 -54 62 -13 16 -35 30 -49 32 -63 9 -180 -66 -339 -219 -110
-106 -139 -123 -246 -146 -69 -15 -78 -16 -165 -24 -65 -5 -65 -5 -125 40 -78
58 -198 117 -305 149 -69 21 -101 25 -164 22 -125 -6 -232 31 -417 141 -93 55
-112 63 -155 62 -27 0 -64 -5 -81 -10z m727 -1199 c35 -18 39 -25 45 -67 3
-27 10 -67 15 -90 6 -22 13 -58 16 -80 20 -125 180 -538 296 -762 16 -30 27
-56 25 -58 -6 -6 -119 143 -190 252 -63 97 -133 229 -176 330 -49 117 -87 303
-84 403 1 12 1 38 2 57 1 19 3 35 6 35 3 0 23 -9 45 -20z"/>
</g>
</svg>
